PathFileType	4	(X/Y/Z)	C:\Users\WrightLab\Desktop\Jo\P2_Trial21.trc
DataRate	CameraRate	NumFrames	NumMarkers	Units	OrigDataRate	OrigDataStartFrame	OrigNumFrames
100.00	100.00	       75	19	mm	100.00	526	       600
Frame#	Time	Headset_Front			Headset_Back			Headset_Left			Headset_Right			Left_Shoulder			Right_Shoulder			Sternum			C7			Left Elbow			Right Elbow			Left Wrist			Right Wrist			Left ASIS			Right ASIS			S2			Left Knee			Right Knee			Left Ankle			Right Ankle			
		X1	Y1	Z1	X2	Y2	Z2	X3	Y3	Z3	X4	Y4	Z4	X5	Y5	Z5	X6	Y6	Z6	X7	Y7	Z7	X8	Y8	Z8	X9	Y9	Z9	X10	Y10	Z10	X11	Y11	Z11	X12	Y12	Z12	X13	Y13	Z13	X14	Y14	Z14	X15	Y15	Z15	X16	Y16	Z16	X17	Y17	Z17	X18	Y18	Z18	X19	Y19	Z19	

526	5.250																			-274.00882	1394.28381	2348.83838				0.08588	1184.99231	2551.91016																															
527	5.260																			-277.87607	1393.49951	2351.10278				-5.03785	1185.15430	2555.13525																															
528	5.270																			-282.21719	1393.80750	2355.09595				-10.54431	1185.79517	2559.98193																															
529	5.280																			-285.75262	1393.53003	2356.80054				-16.59299	1186.39343	2563.45337																															
530	5.290																									-22.34638	1186.65466	2568.06274																															
531	5.300																									-29.44498	1186.76086	2572.86621																															
532	5.310																									-36.52498	1187.44446	2578.11743																															
533	5.320																									-43.98685	1187.08423	2584.05591																															
534	5.330																									-52.37853	1186.95251	2589.42676																															
535	5.340																									-60.80578	1186.25037	2594.76929																															
536	5.350																									-69.71204	1185.55676	2601.33911																															
537	5.360																									-79.29421	1184.93616	2608.41309																															
538	5.370																									-89.42561	1183.97461	2616.05029																															
539	5.380																									-99.98566	1182.69714	2623.54126																															
540	5.390																									-110.72015	1181.89355	2631.39746																															
541	5.400																									-121.74867	1180.43567	2639.03564																															
542	5.410																									-133.06833	1179.21460	2646.56909																															
543	5.420																									-145.27411	1178.66382	2655.11816																															
544	5.430																									-157.52885	1178.21460	2663.64404																															
545	5.440																									-168.90125	1177.60889	2671.66626																															
546	5.450																									-181.81079	1177.07690	2679.74194																															
547	5.460																									-194.71858	1176.77637	2687.62305																															
548	5.470																									-206.98656	1177.85876	2695.88843																															
549	5.480																									-220.11176	1178.12195	2702.88672																															
550	5.490																									-232.24030	1178.61560	2710.46655																															
551	5.500																																																										
552	5.510																																																										
553	5.520																																																										
554	5.530																																																										
555	5.540																																																										
556	5.550																																																										
557	5.560																																																										
558	5.570																																																										
559	5.580																																																										
560	5.590																																																										
561	5.600																																																										
562	5.610																																																										
563	5.620																																																										
564	5.630																																																										
565	5.640																																																										
566	5.650																																																										
567	5.660																																																										
568	5.670																																																										
569	5.680																																																										
570	5.690																																																										
571	5.700																																																										
572	5.710																																																										
573	5.720																																																										
574	5.730																																																										
575	5.740																																																										
576	5.750																																																										
577	5.760																																																										
578	5.770																																																										
579	5.780																																																										
580	5.790																																																										
581	5.800																																																										
582	5.810																																																										
583	5.820																																																										
584	5.830																																																										
585	5.840																																																										
586	5.850																																																										
587	5.860																																																										
588	5.870																																																										
589	5.880																																																										
590	5.890																																																										
591	5.900																																																										
592	5.910																																																										
593	5.920																																																										
594	5.930																																																										
595	5.940																																																										
596	5.950																																																										
597	5.960																																																										
598	5.970																																																										
599	5.980																																																										
600	5.990																																																										
